<mxfile host="app.diagrams.net" modified="2020-09-28T03:23:26.804Z" agent="5.0 (Windows NT 10.0; Win64; x64) AppleWebKit/537.36 (KHTML, like Gecko) Chrome/85.0.4183.121 Safari/537.36" etag="5Ng3UdEGz7i-ynH1vHZ8" version="13.7.5" type="github">
  <diagram id="0aX6RMyqS4xLlncXduFh" name="Page-1">
    <mxGraphModel dx="1422" dy="762" grid="1" gridSize="10" guides="1" tooltips="1" connect="1" arrows="1" fold="1" page="1" pageScale="1" pageWidth="827" pageHeight="1169" math="0" shadow="0">
      <root>
        <mxCell id="0" />
        <mxCell id="1" parent="0" />
        <mxCell id="ewdH4cbdM4IGawuQelbY-5" value="CacheImpl" style="swimlane;fontStyle=0;childLayout=stackLayout;horizontal=1;startSize=26;fillColor=none;horizontalStack=0;resizeParent=1;resizeParentMax=0;resizeLast=0;collapsible=1;marginBottom=0;" vertex="1" parent="1">
          <mxGeometry x="350" y="710" width="230" height="122" as="geometry" />
        </mxCell>
        <mxCell id="ewdH4cbdM4IGawuQelbY-6" value="+ Object  get(Object key)" style="text;strokeColor=none;fillColor=none;align=left;verticalAlign=top;spacingLeft=4;spacingRight=4;overflow=hidden;rotatable=0;points=[[0,0.5],[1,0.5]];portConstraint=eastwest;" vertex="1" parent="ewdH4cbdM4IGawuQelbY-5">
          <mxGeometry y="26" width="230" height="26" as="geometry" />
        </mxCell>
        <mxCell id="ewdH4cbdM4IGawuQelbY-7" value="+ void put(Object key, Obkect value)" style="text;strokeColor=none;fillColor=none;align=left;verticalAlign=top;spacingLeft=4;spacingRight=4;overflow=hidden;rotatable=0;points=[[0,0.5],[1,0.5]];portConstraint=eastwest;" vertex="1" parent="ewdH4cbdM4IGawuQelbY-5">
          <mxGeometry y="52" width="230" height="26" as="geometry" />
        </mxCell>
        <mxCell id="ewdH4cbdM4IGawuQelbY-8" value="+ void delete(Object key)&#xa;" style="text;strokeColor=none;fillColor=none;align=left;verticalAlign=top;spacingLeft=4;spacingRight=4;overflow=hidden;rotatable=0;points=[[0,0.5],[1,0.5]];portConstraint=eastwest;" vertex="1" parent="ewdH4cbdM4IGawuQelbY-5">
          <mxGeometry y="78" width="230" height="22" as="geometry" />
        </mxCell>
        <mxCell id="ewdH4cbdM4IGawuQelbY-9" value="+ void rebuild(Config config)" style="text;strokeColor=none;fillColor=none;align=left;verticalAlign=top;spacingLeft=4;spacingRight=4;overflow=hidden;rotatable=0;points=[[0,0.5],[1,0.5]];portConstraint=eastwest;" vertex="1" parent="ewdH4cbdM4IGawuQelbY-5">
          <mxGeometry y="100" width="230" height="22" as="geometry" />
        </mxCell>
        <mxCell id="ewdH4cbdM4IGawuQelbY-10" value="Cache" style="swimlane;fontStyle=0;childLayout=stackLayout;horizontal=1;startSize=26;fillColor=none;horizontalStack=0;resizeParent=1;resizeParentMax=0;resizeLast=0;collapsible=1;marginBottom=0;" vertex="1" parent="1">
          <mxGeometry x="120" y="450" width="230" height="100" as="geometry" />
        </mxCell>
        <mxCell id="ewdH4cbdM4IGawuQelbY-11" value="+ Object  get(Object key)" style="text;strokeColor=none;fillColor=none;align=left;verticalAlign=top;spacingLeft=4;spacingRight=4;overflow=hidden;rotatable=0;points=[[0,0.5],[1,0.5]];portConstraint=eastwest;" vertex="1" parent="ewdH4cbdM4IGawuQelbY-10">
          <mxGeometry y="26" width="230" height="26" as="geometry" />
        </mxCell>
        <mxCell id="ewdH4cbdM4IGawuQelbY-12" value="+ void put(Object key, Obkect value)" style="text;strokeColor=none;fillColor=none;align=left;verticalAlign=top;spacingLeft=4;spacingRight=4;overflow=hidden;rotatable=0;points=[[0,0.5],[1,0.5]];portConstraint=eastwest;" vertex="1" parent="ewdH4cbdM4IGawuQelbY-10">
          <mxGeometry y="52" width="230" height="26" as="geometry" />
        </mxCell>
        <mxCell id="ewdH4cbdM4IGawuQelbY-13" value="+ void delete(Object key)&#xa;" style="text;strokeColor=none;fillColor=none;align=left;verticalAlign=top;spacingLeft=4;spacingRight=4;overflow=hidden;rotatable=0;points=[[0,0.5],[1,0.5]];portConstraint=eastwest;" vertex="1" parent="ewdH4cbdM4IGawuQelbY-10">
          <mxGeometry y="78" width="230" height="22" as="geometry" />
        </mxCell>
        <mxCell id="ewdH4cbdM4IGawuQelbY-24" value="" style="endArrow=block;endSize=16;endFill=0;html=1;exitX=0.25;exitY=0;exitDx=0;exitDy=0;entryX=0.483;entryY=1.182;entryDx=0;entryDy=0;entryPerimeter=0;" edge="1" parent="1" source="ewdH4cbdM4IGawuQelbY-5">
          <mxGeometry width="160" relative="1" as="geometry">
            <mxPoint x="330" y="590" as="sourcePoint" />
            <mxPoint x="231.08999999999992" y="576.0039999999999" as="targetPoint" />
          </mxGeometry>
        </mxCell>
        <mxCell id="ewdH4cbdM4IGawuQelbY-25" value="" style="endArrow=block;endSize=16;endFill=0;html=1;exitX=0.578;exitY=0.008;exitDx=0;exitDy=0;entryX=0.483;entryY=1.182;entryDx=0;entryDy=0;entryPerimeter=0;exitPerimeter=0;" edge="1" parent="1" source="ewdH4cbdM4IGawuQelbY-5">
          <mxGeometry width="160" relative="1" as="geometry">
            <mxPoint x="836.4100000000001" y="710" as="sourcePoint" />
            <mxPoint x="660" y="576.0039999999999" as="targetPoint" />
          </mxGeometry>
        </mxCell>
        <mxCell id="ewdH4cbdM4IGawuQelbY-15" value="CacheConfig" style="swimlane;fontStyle=0;childLayout=stackLayout;horizontal=1;startSize=26;fillColor=none;horizontalStack=0;resizeParent=1;resizeParentMax=0;resizeLast=0;collapsible=1;marginBottom=0;" vertex="1" parent="1">
          <mxGeometry x="560" y="500" width="230" height="48" as="geometry" />
        </mxCell>
        <mxCell id="ewdH4cbdM4IGawuQelbY-19" value="+ void rebuild(Config config)&#xa;&#xa;&#xa;&#xa;&#xa;" style="text;strokeColor=none;fillColor=none;align=left;verticalAlign=top;spacingLeft=4;spacingRight=4;overflow=hidden;rotatable=0;points=[[0,0.5],[1,0.5]];portConstraint=eastwest;" vertex="1" parent="ewdH4cbdM4IGawuQelbY-15">
          <mxGeometry y="26" width="230" height="22" as="geometry" />
        </mxCell>
      </root>
    </mxGraphModel>
  </diagram>
</mxfile>
